<svg version="1.2" xmlns="http://www.w3.org/2000/svg" viewBox="0 0 388 80" width="388" height="80"><defs><linearGradient id="P" gradientUnits="userSpaceOnUse"/><linearGradient id="g1" x2="1" href="#P" gradientTransform="matrix(-490.543,-1003.903,6024.418,-2943.747,-137.994,-4.587)"><stop stop-color="#20a9e1"/><stop offset="1" stop-color="#2b6db2"/></linearGradient><linearGradient id="g2" x2="1" href="#P" gradientTransform="matrix(-207.487,-424.625,820.889,-401.116,-283.174,-242.938)"><stop stop-color="#20a9e1"/><stop offset="1" stop-color="#2b6db2"/></linearGradient><linearGradient id="g3" x2="1" href="#P" gradientTransform="matrix(-491.975,-1006.834,6060.129,-2961.195,-149.913,-26.597)"><stop stop-color="#20a9e1"/><stop offset="1" stop-color="#2b6db2"/></linearGradient><linearGradient id="g4" x2="1" href="#P" gradientTransform="matrix(-133.089,-272.368,344.57,-168.37,-296.906,-261.652)"><stop stop-color="#20a9e1"/><stop offset="1" stop-color="#2b6db2"/></linearGradient><linearGradient id="g5" x2="1" href="#P" gradientTransform="matrix(-176.463,-361.134,422.486,-206.442,-285.256,-198.052)"><stop stop-color="#20a9e1"/><stop offset="1" stop-color="#2b6db2"/></linearGradient><linearGradient id="g6" x2="1" href="#P" gradientTransform="matrix(-331.949,-758.099,6193.317,-2711.869,138.183,313.696)"><stop stop-color="#20a9e1"/><stop offset="1" stop-color="#2b6db2"/></linearGradient><linearGradient id="g7" x2="1" href="#P" gradientTransform="matrix(-111.54,-254.733,517.366,-226.539,43.208,125.579)"><stop stop-color="#20a9e1"/><stop offset="1" stop-color="#2b6db2"/></linearGradient><linearGradient id="g8" x2="1" href="#P" gradientTransform="matrix(-333.348,-761.294,6177.007,-2704.727,131.556,299.428)"><stop stop-color="#20a9e1"/><stop offset="1" stop-color="#2b6db2"/></linearGradient><linearGradient id="g9" x2="1" href="#P" gradientTransform="matrix(-92.568,-211.406,249.439,-109.222,39.482,145.726)"><stop stop-color="#20a9e1"/><stop offset="1" stop-color="#2b6db2"/></linearGradient><linearGradient id="g10" x2="1" href="#P" gradientTransform="matrix(-70.009,-159.886,208.742,-91.401,35.248,111.805)"><stop stop-color="#20a9e1"/><stop offset="1" stop-color="#2b6db2"/></linearGradient></defs><style>.a{fill:#fff}.b{fill:#2881c1}.c{fill:#fefefe}.d{fill:url(#g1)}.e{fill:url(#g2)}.f{fill:url(#g3)}.g{fill:url(#g4)}.h{fill:url(#g5)}.i{fill:#231f20}.j{fill:url(#g6)}.k{fill:url(#g7)}.l{fill:url(#g8)}.m{fill:url(#g9)}.n{fill:url(#g10)}</style><path class="a" d="m-557-110h500v-500h-500z"/><path class="a" d="m-57-110h500v-500h-500z"/><path class="a" d="m-557 190h500v-300h-500z"/><path class="a" d="m-57 190h500v-300h-500z"/><path class="b" d="m443-110h-500v-500h500z"/><path class="c" d="m154.8-343.1c10.9 11.4 26.9 17.7 42.9 16.8q2.2-0.1 4.4-0.4c12.2-1.7 23.7-7.6 32.1-16.4 10.4-10.9 15.8-25.9 14.4-40.7-0.3-2.9-0.8-5.6-1.6-8.1l-101.9 34.6c2.4 5.2 5.7 10 9.7 14.2z"/><path class="c" d="m140.7-371.7q0.3 2.1 0.8 4.1 0 0.1 0 0.1l101.3-34.4v-0.1q-0.9-1.7-1.9-3.3-0.1-0.2-0.2-0.3z"/><path class="c" d="m142.4-364.3q0.6 2 1.3 3.9l102.3-34.7q-0.8-1.9-1.7-3.8z"/><path class="c" d="m253.7-382.1c-0.2 8.1-1.5 16.2-4.3 23.5-2.8 7.4-7.2 14-12.7 19.5-5.4 5.4-12.1 9.6-19.2 12.3-7.2 2.7-14.9 4-22.6 4-3.9 0.1-7.7-0.3-11.5-1-3.8-0.6-7.5-1.7-11.1-3.1-7.1-2.7-13.8-6.9-19.3-12.4-5.4-5.4-9.9-12-12.7-19.3-3-7.4-4.3-15.4-4.5-23.5-1.3 8-0.9 16.5 1.4 24.5 1.1 4 2.7 7.9 4.7 11.6 2 3.7 4.5 7.2 7.3 10.4 5.7 6.3 12.9 11.3 20.7 14.6 4 1.7 8.1 2.9 12.3 3.7 4.2 0.8 8.4 1.2 12.7 1.2 8.5 0 17-1.6 24.9-4.8 7.9-3.3 15.1-8.3 20.7-14.6 5.7-6.4 9.8-14 12-22.1 2.1-8.1 2.5-16.5 1.2-24.5z"/><path fill-rule="evenodd" class="c" d="m140.3-375.1q-0.4-4.3 0.1-8.7c0.7-8.3 3.7-15.1 7.6-21.5 3.3-5.4 7.3-10.5 11.2-15.9 9.1-12.7 17.6-25.9 24.8-39.7 4-7.8 7.7-15.8 10.5-24.1 2.8 8.3 6.4 16.3 10.4 24.1 7.2 13.8 15.7 27 24.9 39.7 3.1 4.4 6.2 8.5 9 12.7zm80.1-40.3c0 1.3 1.1 2.4 2.4 2.4 1.3 0 2.4-1.1 2.4-2.4 0-1.4-1.1-2.4-2.4-2.4-1.3 0-2.4 1-2.4 2.4zm-11.7-12.1c0 2.7 2.2 4.8 4.8 4.8 2.7 0 4.8-2.1 4.8-4.8 0-2.7-2.1-4.8-4.8-4.8-2.6 0-4.8 2.1-4.8 4.8zm-4.8 14.9c-2.7 0-4.8 2.1-4.8 4.8 0 2.6 2.1 4.8 4.8 4.8 2.6 0 4.8-2.2 4.8-4.8 0-2.7-2.2-4.8-4.8-4.8zm-4.8-32.4c0 1.4 1 2.4 2.4 2.4 1.3 0 2.4-1 2.4-2.4 0-1.3-1.1-2.4-2.4-2.4-1.4 0-2.4 1.1-2.4 2.4zm-4.6 21.9c0 1.3 1.1 2.4 2.4 2.4 1.3 0 2.4-1.1 2.4-2.4 0-1.3-1.1-2.4-2.4-2.4-1.3 0-2.4 1.1-2.4 2.4zm-7.4-32.7c0 1.3 1 2.4 2.4 2.4 1.3 0 2.4-1.1 2.4-2.4 0-1.4-1.1-2.5-2.4-2.5-1.4 0-2.4 1.1-2.4 2.5zm-5 23.5c0 2.6 2.2 4.8 4.9 4.8 2.6 0 4.8-2.2 4.8-4.8 0-2.7-2.2-4.8-4.8-4.8-2.7 0-4.9 2.1-4.9 4.8zm-2.4 24.5c0 1.3 1.1 2.4 2.4 2.4 1.4 0 2.5-1.1 2.5-2.4 0-1.4-1.1-2.4-2.5-2.4-1.3 0-2.4 1-2.4 2.4zm-5.1 12.1c-1.4 0-2.5 1.1-2.5 2.4 0 1.3 1.1 2.4 2.5 2.4 1.3 0 2.4-1.1 2.4-2.4 0-1.3-1.1-2.4-2.4-2.4zm-4.9-30.9c0 1.3 1.1 2.4 2.4 2.4 1.4 0 2.5-1.1 2.5-2.4 0-1.3-1.1-2.4-2.5-2.4-1.3 0-2.4 1.1-2.4 2.4zm-13.2 20.9c0 2.7 2.1 4.8 4.8 4.8 2.7 0 4.8-2.1 4.8-4.8 0-2.6-2.1-4.8-4.8-4.8-2.7 0-4.8 2.2-4.8 4.8zm-6.5 17.2c0 1.4 1.1 2.4 2.4 2.4 1.3 0 2.4-1 2.4-2.4 0-1.3-1.1-2.4-2.4-2.4-1.3 0-2.4 1.1-2.4 2.4z"/><path fill-rule="evenodd" class="c" d="m169.7-279.6l-5-7.5h-4v7.5h-5.2v-23.4h10.7q4.2 0 6.5 2.1 2.3 2 2.3 5.7 0 2.9-1.4 4.7-1.3 1.7-3.6 2.6l5.7 8.3zm-0.9-12.9q1-0.9 1-2.4v-0.1q0-1.7-1-2.5-1.1-0.8-3-0.8h-5.1v6.7h5.2q1.9 0 2.9-0.9z"/><path fill-rule="evenodd" class="c" d="m160.4-259.7q0.6 1.4 0.6 3.1 0 1.9-0.7 3.3-0.8 1.5-2 2.5-1.3 0.9-2.9 1.4-1.7 0.5-3.6 0.5h-5.7v8.3h-2.6v-23.4h8.7q2 0 3.6 0.5 1.7 0.5 2.8 1.4 1.2 1 1.8 2.4zm-2 3.2q0-2.5-1.8-3.8-1.7-1.3-4.5-1.3h-6v10.3h5.8q1.5 0 2.7-0.4 1.1-0.3 2-1 0.9-0.7 1.3-1.7 0.5-0.9 0.5-2.1z"/><path fill-rule="evenodd" class="c" d="m93.3-279.6h-5.2l10-23.5h4.7l10.1 23.5h-5.4l-2.2-5.2h-9.9zm4-9.8h6.2l-3.1-7.6z"/><path class="c" d="m152.6-284.1h-12.7v-5h11v-4.5h-11v-4.8h12.5v-4.6h-17.6v23.4h17.8z"/><path class="c" d="m64.9-279.4l5.3-15.3 5.3 15.3h4.4l8-23.6h-5.4l-4.8 15.9-5.3-15.9h-4.4l-5.2 15.9-4.9-15.9h-5.5l8 23.6z"/><path class="c" d="m120.2-279.6h5.2v-18.6h7.1v-4.8h-19.4v4.8h7.1z"/><path fill-rule="evenodd" class="c" d="m245.1-287.9l5.7 8.3h-6l-5-7.5h-4v7.5h-5.2v-23.4h10.7q4.2 0 6.5 2.1 2.3 2 2.3 5.7 0 2.9-1.3 4.7-1.4 1.7-3.7 2.6zm-0.2-7.1q0-1.7-1-2.5-1.1-0.8-3-0.8h-5.1v6.7h5.2q1.9 0 2.9-0.9 1-0.9 1-2.4z"/><path class="c" d="m267.8-288.6h11.2v-4.7h-11.2v-5h12.7v-4.7h-17.8v23.4h5.1z"/><path class="c" d="m288.3-303h-5.1v23.4h5.1z"/><path fill-rule="evenodd" class="c" d="m318.4-279.6h-5.2v-23.4h10.7q4.2 0 6.5 2.1 2.3 2 2.3 5.7 0 2.9-1.3 4.7-1.4 1.7-3.7 2.6l5.7 8.3h-6l-5-7.5h-4zm0-12h5.2q1.9 0 2.9-0.9 1-0.9 1-2.4v-0.1q0-1.6-1-2.5-1.1-0.8-3-0.8h-5.1z"/><path fill-rule="evenodd" class="c" d="m179.6-264.2l10.7 23.6h-2.9l-2.7-6.2h-12.7l-2.8 6.2h-2.7l10.7-23.6zm4 15l-5.3-11.9-5.4 11.9z"/><path class="c" d="m310.3-284.1h-12.7v-5h11v-4.5h-11v-4.8h12.5v-4.6h-17.6v23.4h17.8z"/><path class="c" d="m258.5-303h-5.1v23.4h5.1z"/><path fill-rule="evenodd" class="c" d="m212.1-250.2l7.2 9.6h-3.3l-6.8-9.1h-6.6v9.1h-2.7v-23.4h10.1q1.9 0 3.5 0.5 1.5 0.5 2.6 1.4 1.1 0.9 1.7 2.2 0.6 1.3 0.6 2.8 0 1.5-0.4 2.7-0.5 1.1-1.4 2-0.8 0.8-2 1.4-1.1 0.6-2.5 0.8zm-2.3-1.9q1.3 0 2.4-0.3 1.1-0.4 1.9-1 0.8-0.6 1.2-1.5 0.5-0.9 0.5-2 0-2.3-1.6-3.5-1.6-1.2-4.4-1.2h-7.2v9.5z"/><path class="c" d="m248.6-264h-3.4l-13.5 13.9v-13.9h-2.6v23.4h2.6v-6.3l5-5.1 9 11.4h3.3l-10.4-13.2z"/><path fill-rule="evenodd" class="c" d="m202.1-288.7q-1.3 1.1-3 1.6-1.7 0.5-3.7 0.5h-3.9v7h-5.1v-23.4h9.5q2.1 0 3.8 0.6 1.6 0.6 2.8 1.7 1.1 1 1.8 2.5 0.6 1.5 0.6 3.3v0.1q0 2-0.8 3.6-0.7 1.5-2 2.5zm-2.4-6.1q0-1.7-1.2-2.6-1.1-0.9-3-0.9h-4v7.1h4.1q1.9 0 3-1 1.1-1 1.1-2.5z"/><path class="c" d="m221.9-289.6q0 2.8-1.3 4.2-1.4 1.5-3.7 1.5-2.4 0-3.8-1.5-1.3-1.5-1.3-4.3v-13.3h-5.1v13.4q0 5.2 2.7 7.8 2.7 2.6 7.4 2.6 2.3 0 4.2-0.7 1.9-0.6 3.3-1.9 1.3-1.3 2-3.3 0.7-2 0.7-4.7v-13.2h-5.1z"/><path class="c" d="m323.8-264.3c-1.5 5.7-5.8 10.3-11.4 12.2h-55.5v0.7h55.5c5.6 1.9 9.9 6.4 11.4 12.2 1.7-6.2 6.4-10.9 12.5-12.6-6.1-1.6-10.8-6.4-12.5-12.5z"/><path class="c" d="m65.8-264.3c-1.6 6.1-6.4 10.9-12.5 12.5 6.1 1.7 10.9 6.4 12.5 12.6 1.6-5.8 5.9-10.3 11.4-12.2h55.5v-0.7h-55.5c-5.5-1.9-9.8-6.5-11.4-12.2z"/><path class="d" d="m-359.3-371.7q0.3 2.1 0.8 4.1 0 0.1 0 0.1l101.3-34.4v-0.1q-0.9-1.7-1.9-3.3-0.1-0.2-0.2-0.3z"/><path class="e" d="m-345.2-343.1c10.9 11.4 26.9 17.7 42.9 16.8q2.2-0.1 4.4-0.4c12.2-1.7 23.7-7.6 32.1-16.4 10.4-10.9 15.8-25.9 14.4-40.7-0.3-2.9-0.8-5.6-1.6-8.1l-101.9 34.6c2.4 5.2 5.7 10 9.7 14.2z"/><path class="f" d="m-357.6-364.3q0.6 2 1.4 3.9l102.2-34.7q-0.8-1.9-1.7-3.8z"/><path class="g" d="m-246.3-382.1c-0.2 8.1-1.5 16.2-4.3 23.5-2.8 7.4-7.2 14-12.7 19.5-5.4 5.4-12.1 9.6-19.2 12.3-7.2 2.7-14.9 4-22.6 4-3.9 0.1-7.7-0.3-11.5-1-3.8-0.6-7.5-1.7-11.1-3.1-7.1-2.7-13.8-6.9-19.3-12.4-5.4-5.4-9.9-12-12.7-19.3-3-7.4-4.3-15.4-4.5-23.5-1.3 8-0.9 16.5 1.4 24.5 1.1 4 2.7 7.9 4.7 11.6 2 3.7 4.5 7.2 7.3 10.4 5.7 6.3 12.9 11.3 20.7 14.6 4 1.7 8.1 2.9 12.3 3.7 4.2 0.8 8.4 1.2 12.7 1.2 8.5 0 17-1.6 24.9-4.8 7.9-3.3 15.1-8.3 20.7-14.6 5.7-6.4 9.8-14 12-22.1 2.1-8.1 2.5-16.5 1.2-24.5z"/><path fill-rule="evenodd" class="h" d="m-359.7-375.1q-0.4-4.3 0.1-8.7c0.7-8.3 3.7-15.1 7.6-21.5 3.3-5.4 7.3-10.5 11.2-15.9 9.1-12.7 17.6-25.9 24.8-39.7 4-7.8 7.7-15.8 10.5-24.1 2.8 8.3 6.4 16.3 10.4 24.1 7.2 13.8 15.7 27 24.9 39.7 3.1 4.4 6.2 8.5 9 12.7zm80.1-40.3c0 1.3 1.1 2.4 2.4 2.4 1.3 0 2.4-1.1 2.4-2.4 0-1.4-1.1-2.4-2.4-2.4-1.3 0-2.4 1-2.4 2.4zm-11.7-12.1c0 2.7 2.2 4.8 4.8 4.8 2.7 0 4.8-2.1 4.8-4.8 0-2.7-2.1-4.8-4.8-4.8-2.6 0-4.8 2.1-4.8 4.8zm-4.8 14.9c-2.7 0-4.8 2.1-4.8 4.8 0 2.6 2.1 4.8 4.8 4.8 2.6 0 4.8-2.2 4.8-4.8 0-2.7-2.2-4.8-4.8-4.8zm-4.8-32.4c0 1.4 1 2.4 2.4 2.4 1.3 0 2.4-1 2.4-2.4 0-1.3-1.1-2.4-2.4-2.4-1.4 0-2.4 1.1-2.4 2.4zm-4.6 21.9c0 1.3 1.1 2.4 2.4 2.4 1.3 0 2.4-1.1 2.4-2.4 0-1.3-1.1-2.4-2.4-2.4-1.3 0-2.4 1.1-2.4 2.4zm-7.4-32.7c0 1.3 1 2.4 2.4 2.4 1.3 0 2.4-1.1 2.4-2.4 0-1.4-1.1-2.5-2.4-2.5-1.4 0-2.4 1.1-2.4 2.5zm-5 23.5c0 2.6 2.2 4.8 4.9 4.8 2.6 0 4.8-2.2 4.8-4.8 0-2.7-2.2-4.8-4.8-4.8-2.7 0-4.9 2.1-4.9 4.8zm-2.4 24.5c0 1.3 1.1 2.4 2.4 2.4 1.4 0 2.5-1.1 2.5-2.4 0-1.4-1.1-2.4-2.5-2.4-1.3 0-2.4 1-2.4 2.4zm-5.1 12.1c-1.4 0-2.5 1.1-2.5 2.4 0 1.3 1.1 2.4 2.5 2.4 1.3 0 2.4-1.1 2.4-2.4 0-1.3-1.1-2.4-2.4-2.4zm-4.9-30.9c0 1.3 1.1 2.4 2.4 2.4 1.4 0 2.5-1.1 2.5-2.4 0-1.3-1.1-2.4-2.5-2.4-1.3 0-2.4 1.1-2.4 2.4zm-13.2 20.9c0 2.7 2.1 4.8 4.8 4.8 2.7 0 4.8-2.1 4.8-4.8 0-2.6-2.1-4.8-4.8-4.8-2.7 0-4.8 2.2-4.8 4.8zm-6.5 17.2c0 1.4 1.1 2.4 2.4 2.4 1.3 0 2.4-1 2.4-2.4 0-1.3-1.1-2.4-2.4-2.4-1.3 0-2.4 1.1-2.4 2.4z"/><path class="i" d="m-420.1-279.4h-4.5l-5.2-15.3-5.3 15.3h-4.5l-8-23.6h5.5l4.9 15.9 5.2-15.9h4.4l5.3 15.9 4.8-15.9h5.4z"/><path fill-rule="evenodd" class="i" d="m-392.5-279.6l-2.2-5.2h-9.9l-2.1 5.2h-5.2l10-23.5h4.7l10.1 23.5zm-7.1-17.4l-3.1 7.6h6.2z"/><path class="i" d="m-374.6-298.2v18.6h-5.2v-18.6h-7.1v-4.8h19.4v4.8z"/><path class="i" d="m-365.2-279.6v-23.4h17.6v4.6h-12.5v4.8h11v4.5h-11v5h12.7v4.5z"/><path fill-rule="evenodd" class="i" d="m-330.3-279.6l-5-7.5h-4v7.5h-5.2v-23.4h10.7q4.2 0 6.5 2.1 2.3 2 2.3 5.7 0 2.9-1.4 4.7-1.3 1.7-3.6 2.6l5.7 8.3zm0.1-15.4q0-1.7-1-2.5-1.1-0.8-3-0.8h-5.1v6.7h5.2q1.9 0 2.9-0.9 1-0.9 1-2.4z"/><path fill-rule="evenodd" class="b" d="m-295.9-291.2q-0.7 1.5-2 2.5-1.3 1.1-3 1.6-1.7 0.5-3.7 0.5h-3.9v7h-5.1v-23.4h9.5q2.1 0 3.8 0.6 1.6 0.6 2.8 1.7 1.1 1 1.8 2.5 0.6 1.5 0.6 3.3v0.1q0 2-0.8 3.6zm-4.4-3.6q0-1.7-1.2-2.6-1.1-0.9-3-0.9h-4v7.1h4.1q1.9 0 3-1 1.1-1 1.1-2.5z"/><path class="b" d="m-273.7-285.1q-0.7 2-2 3.3-1.4 1.3-3.3 1.9-1.9 0.7-4.2 0.7-4.7 0-7.4-2.6-2.7-2.6-2.7-7.8v-13.4h5.1v13.3q0 2.8 1.3 4.3 1.4 1.5 3.8 1.5 2.3 0 3.7-1.5 1.3-1.4 1.3-4.2v-13.4h5.1v13.2q0 2.7-0.7 4.7z"/><path fill-rule="evenodd" class="b" d="m-255.2-279.6l-5-7.5h-4v7.5h-5.2v-23.4h10.7q4.2 0 6.5 2.1 2.3 2 2.3 5.7 0 2.9-1.3 4.7-1.4 1.7-3.7 2.6l5.7 8.3zm0.1-15.4q0-1.7-1-2.5-1.1-0.8-3-0.8h-5.1v6.7h5.2q1.9 0 2.9-0.9 1-0.9 1-2.4z"/><path class="b" d="m-246.6-279.6v-23.4h5.1v23.4z"/><path class="b" d="m-232.2-298.3v5h11.2v4.7h-11.2v9h-5.1v-23.4h17.8v4.7z"/><path class="b" d="m-216.8-279.6v-23.4h5.1v23.4z"/><path class="b" d="m-207.5-279.6v-23.4h17.6v4.6h-12.5v4.8h11v4.5h-11v5h12.7v4.5z"/><path fill-rule="evenodd" class="b" d="m-172.6-279.6l-5-7.5h-4v7.5h-5.2v-23.4h10.7q4.2 0 6.5 2.1 2.3 2 2.3 5.7 0 2.9-1.3 4.7-1.4 1.7-3.7 2.6l5.7 8.3zm0.1-15.4q0-1.7-1-2.5-1.1-0.8-3-0.8h-5.1v6.7h5.2q1.9 0 2.9-0.9 1-0.9 1-2.4z"/><path fill-rule="evenodd" class="b" d="m-339.6-259.7q0.6 1.4 0.6 3.1 0 1.9-0.7 3.3-0.8 1.5-2 2.5-1.3 0.9-2.9 1.4-1.7 0.5-3.6 0.5h-5.7v8.3h-2.6v-23.4h8.7q2 0 3.6 0.5 1.7 0.5 2.8 1.4 1.2 1 1.8 2.4zm-2 3.2q0-2.5-1.8-3.8-1.7-1.3-4.5-1.3h-6v10.3h5.8q1.5 0 2.7-0.4 1.1-0.3 2-1 0.9-0.7 1.3-1.7 0.5-0.9 0.5-2.1zm21.2-7.7l10.7 23.6h-2.9l-2.7-6.2h-12.7l-2.8 6.2h-2.7l10.7-23.6zm4 15l-5.3-11.9-5.4 11.9zm28.4-1l7.2 9.6h-3.2l-6.8-9.1h-6.7v9.1h-2.6v-23.4h10q2 0 3.5 0.5 1.6 0.5 2.7 1.4 1.1 0.9 1.7 2.2 0.6 1.3 0.6 2.8 0 1.5-0.5 2.7-0.4 1.1-1.3 2-0.8 0.8-2 1.4-1.2 0.6-2.6 0.8zm-2.3-1.9q1.3 0 2.4-0.3 1.1-0.4 1.9-1 0.9-0.6 1.3-1.5 0.5-0.9 0.5-2 0-2.3-1.6-3.5-1.6-1.2-4.4-1.2h-7.3v9.5zm28.8-1.7l10.5 13.2h-3.3l-9-11.4-5 5.1v6.3h-2.6v-23.4h2.6v13.9l13.4-13.9h3.4zm-161.3 1.7h55.4v0.6h-55.4c-5.6 1.9-9.9 6.5-11.4 12.2-1.7-6.1-6.4-10.9-12.5-12.5 6.1-1.7 10.8-6.4 12.5-12.5 1.5 5.7 5.8 10.3 11.4 12.2zm259.1 0.3c-6.1 1.6-10.9 6.4-12.5 12.5-1.6-5.7-5.9-10.3-11.4-12.2h-55.5v-0.6h55.5c5.5-1.9 9.8-6.5 11.4-12.2 1.6 6.1 6.4 10.8 12.5 12.5z"/><path class="b" d="m-57 190h-500v-300h500z"/><path class="c" d="m-489 67.2c5.2 5.4 12.8 8.4 20.4 8q1-0.1 2-0.2c5.8-0.9 11.3-3.7 15.2-7.8 5-5.2 7.5-12.3 6.8-19.3q-0.2-2-0.7-3.8l-48.3 16.4c1.2 2.4 2.7 4.7 4.6 6.7z"/><path class="c" d="m-495.6 53.7q0.1 1 0.3 1.9l48-16.3q-0.4-0.8-0.9-1.6 0 0-0.1-0.1z"/><path class="c" d="m-494.8 57.2q0.2 0.9 0.6 1.8l48.4-16.4q-0.3-0.9-0.8-1.8z"/><path fill-rule="evenodd" class="c" d="m-495.8 52.1q-0.2-2.1 0-4.2c0.4-3.9 1.8-7.1 3.6-10.2 1.6-2.5 3.5-4.9 5.3-7.5 4.3-6 8.4-12.2 11.8-18.8 1.9-3.7 3.6-7.5 4.9-11.4 1.3 3.9 3.1 7.7 5 11.4 3.4 6.6 7.4 12.8 11.7 18.8 1.5 2.1 3 4 4.3 6zm38-19.1c0 0.7 0.5 1.2 1.1 1.2 0.6 0 1.1-0.5 1.1-1.2 0-0.6-0.5-1.1-1.1-1.1-0.6 0-1.1 0.5-1.1 1.1zm-5.6-5.7c0 1.3 1 2.3 2.3 2.3 1.3 0 2.3-1 2.3-2.3 0-1.2-1-2.3-2.3-2.3-1.3 0-2.3 1.1-2.3 2.3zm-2.3 7.1c-1.2 0-2.2 1-2.2 2.2 0 1.3 1 2.3 2.2 2.3 1.3 0 2.3-1 2.3-2.3 0-1.2-1-2.2-2.3-2.2zm-2.2-15.4c0 0.7 0.5 1.2 1.1 1.2 0.6 0 1.1-0.5 1.1-1.2 0-0.6-0.5-1.1-1.1-1.1-0.6 0-1.1 0.5-1.1 1.1zm-2.2 10.4c0 0.6 0.5 1.1 1.1 1.1 0.7 0 1.2-0.5 1.2-1.1 0-0.6-0.5-1.1-1.2-1.1-0.6 0-1.1 0.5-1.1 1.1zm-3.5-15.5c0 0.6 0.5 1.1 1.1 1.1 0.6 0 1.1-0.5 1.1-1.1 0-0.6-0.5-1.1-1.1-1.1-0.6 0-1.1 0.5-1.1 1.1zm-2.4 11.1c0 1.3 1.1 2.3 2.3 2.3 1.3 0 2.3-1 2.3-2.3 0-1.2-1-2.2-2.3-2.2-1.2 0-2.3 1-2.3 2.2zm-1.1 11.6c0 0.7 0.5 1.2 1.1 1.2 0.7 0 1.2-0.5 1.2-1.2 0-0.6-0.5-1.1-1.2-1.1-0.6 0-1.1 0.5-1.1 1.1zm-2.5 5.8c-0.6 0-1.1 0.5-1.1 1.1 0 0.6 0.5 1.2 1.1 1.2 0.7 0 1.2-0.6 1.2-1.2 0-0.6-0.5-1.1-1.2-1.1zm-2.2-14.7c0 0.7 0.5 1.2 1.1 1.2 0.6 0 1.1-0.5 1.1-1.2 0-0.6-0.5-1.1-1.1-1.1-0.6 0-1.1 0.5-1.1 1.1zm-6.3 9.9c0 1.3 1 2.3 2.3 2.3 1.2 0 2.2-1 2.2-2.3 0-1.2-1-2.2-2.2-2.2-1.3 0-2.3 1-2.3 2.2zm-3.1 8.2c0 0.6 0.5 1.1 1.2 1.1 0.6 0 1.1-0.5 1.1-1.1 0-0.6-0.5-1.1-1.1-1.1-0.7 0-1.2 0.5-1.2 1.1z"/><path class="c" d="m-444.2 59.9c-1.3 3.5-3.4 6.6-5.9 9.2-2.6 2.6-5.8 4.5-9.2 5.8-3.4 1.3-7 1.9-10.7 1.9q-2.7 0-5.4-0.4-2.7-0.5-5.3-1.5c-3.3-1.3-6.5-3.3-9.1-5.9-2.6-2.5-4.7-5.7-6-9.2-1.4-3.4-2.1-7.2-2.1-11.1-0.7 3.8-0.5 7.8 0.6 11.6q0.8 2.9 2.2 5.5 1.5 2.7 3.5 4.9c2.7 3 6.1 5.4 9.8 7q2.8 1.1 5.8 1.7 3 0.6 6 0.6c4 0 8.1-0.8 11.8-2.3 3.8-1.5 7.2-3.9 9.9-6.9 2.6-3 4.6-6.6 5.6-10.5 1-3.8 1.2-7.8 0.6-11.6-0.1 3.9-0.7 7.7-2.1 11.2z"/><path class="c" d="m-413.1 31l5.8-16.8 5.8 16.8h4.9l8.7-25.8h-5.9l-5.3 17.3-5.7-17.4h-4.9l-5.7 17.4-5.3-17.3h-6.1l8.8 25.8z"/><path fill-rule="evenodd" class="c" d="m-382 30.8h-5.7l11-25.8h5.2l11 25.8h-5.9l-2.4-5.7h-10.8zm4.3-10.8h6.8l-3.4-8.3z"/><path class="c" d="m-352.5 30.8h5.7v-20.4h7.8v-5.2h-21.3v5.2h7.8z"/><path class="c" d="m-317 25.8h-14v-5.4h12.1v-5h-12.1v-5.2h13.8v-5h-19.3v25.6h19.5z"/><path fill-rule="evenodd" class="c" d="m-298.3 30.8l-5.4-8.2h-4.5v8.2h-5.6v-25.6h11.7q4.6 0 7.1 2.2 2.6 2.3 2.6 6.2v0.1q0 3.1-1.5 5.1-1.6 1.9-4 2.9l6.2 9.1zm-1-14.2q1.2-0.9 1.2-2.6v-0.1q0-1.8-1.2-2.7-1.2-0.9-3.3-0.9h-5.6v7.3h5.7q2.1 0 3.2-1z"/><path fill-rule="evenodd" class="c" d="m-262.7 20.9q-1.5 1.1-3.3 1.7-1.9 0.5-4.1 0.5h-4.3v7.7h-5.6v-25.6h10.5q2.3 0 4.1 0.6 1.8 0.7 3.1 1.8 1.2 1.2 1.9 2.8 0.7 1.7 0.7 3.6v0.1q0 2.3-0.8 3.9-0.8 1.7-2.2 2.9zm-2.7-6.7q0-1.9-1.3-2.9-1.2-1-3.3-1h-4.4v7.8h4.5q2.1 0 3.3-1.1 1.2-1.1 1.2-2.8z"/><path class="c" d="m-241.1 19.9q0 3-1.4 4.6-1.5 1.5-4.1 1.5-2.6 0-4.1-1.6-1.4-1.6-1.4-4.7v-14.5h-5.7v14.6q0 5.7 3 8.6 3 2.8 8.1 2.8 2.6 0 4.7-0.7 2.1-0.7 3.5-2.2 1.5-1.4 2.3-3.6 0.8-2.1 0.8-5.1v-14.4h-5.7z"/><path fill-rule="evenodd" class="c" d="m-215.6 21.7l6.2 9.1h-6.6l-5.5-8.2h-4.4v8.2h-5.6v-25.6h11.7q4.6 0 7.1 2.2 2.6 2.3 2.6 6.2v0.1q0 3.1-1.6 5.1-1.5 1.9-3.9 2.9zm-0.2-7.8q0-1.8-1.2-2.7-1.2-0.9-3.3-0.9h-5.6v7.3h5.7q2.1 0 3.2-1 1.2-0.9 1.2-2.6z"/><path class="c" d="m-201 5.2h-5.6v25.6h5.6z"/><path class="c" d="m-190.8 20.9h12.3v-5.1h-12.3v-5.5h13.9v-5.1h-19.5v25.6h5.6z"/><path class="c" d="m-168.3 5.2h-5.7v25.6h5.7z"/><path class="c" d="m-144.3 25.8h-13.9v-5.4h12.1v-5h-12.1v-5.2h13.8v-5h-19.3v25.6h19.4z"/><path fill-rule="evenodd" class="c" d="m-135.4 30.8h-5.6v-25.6h11.7q4.6 0 7.1 2.2 2.6 2.3 2.6 6.2v0.1q0 3.1-1.6 5.1-1.5 1.9-3.9 2.9l6.2 9.1h-6.6l-5.5-8.2h-4.4zm0-13.2h5.7q2.1 0 3.2-1 1.1-0.9 1.1-2.6v-0.1q0-1.8-1.1-2.7-1.2-0.9-3.3-0.9h-5.6z"/><path fill-rule="evenodd" class="c" d="m-287.4 47.6l11.7 25.9h-3.1l-3-6.8h-14l-3 6.8h-3l11.7-25.9zm4.4 16.5l-5.8-13.1-5.9 13.1z"/><path fill-rule="evenodd" class="c" d="m-308.5 52.6q0.7 1.5 0.7 3.4 0 2.1-0.8 3.7-0.8 1.5-2.2 2.6-1.4 1.1-3.2 1.6-1.8 0.5-3.9 0.5h-6.2v9.1h-2.9v-25.7h9.6q2.2 0 3.9 0.6 1.8 0.6 3.1 1.6 1.2 1 1.9 2.6zm-2.2 3.5q0-2.8-1.9-4.2-1.9-1.4-5-1.4h-6.5v11.3h6.4q1.5 0 2.8-0.4 1.3-0.4 2.3-1.2 0.9-0.7 1.4-1.8 0.5-1 0.5-2.3z"/><path class="c" d="m-412.1 47.5c-1.8 6.7-7 12-13.7 13.8 6.7 1.8 11.9 7 13.7 13.7 1.7-6.3 6.4-11.3 12.5-13.4h60.8v-0.7h-60.8c-6.1-2.1-10.8-7.1-12.5-13.4z"/><path class="c" d="m-129.4 47.5c-1.7 6.3-6.4 11.3-12.6 13.4h-60.7v0.7h60.7c6.2 2.1 10.9 7.1 12.6 13.4 1.8-6.7 7-11.9 13.7-13.7-6.7-1.8-11.9-7.1-13.7-13.8z"/><path class="c" d="m-211.8 47.8h-3.8l-14.7 15.3v-15.3h-2.9v25.7h2.9v-6.9l5.5-5.6 9.8 12.5h3.6l-11.4-14.5z"/><path fill-rule="evenodd" class="c" d="m-251.8 63l7.8 10.5h-3.5l-7.4-10h-7.4v10h-2.9v-25.7h11.1q2.1 0 3.8 0.6 1.7 0.5 2.9 1.5 1.2 1 1.9 2.4 0.6 1.5 0.6 3.2 0 1.6-0.5 2.9-0.5 1.2-1.4 2.2-1 0.9-2.3 1.5-1.2 0.6-2.7 0.9zm-2.6-2.1q1.5 0 2.7-0.3 1.2-0.4 2.1-1.1 0.8-0.7 1.3-1.7 0.5-0.9 0.5-2.2 0-2.4-1.7-3.8-1.7-1.3-4.8-1.3h-8v10.4z"/><path class="j" d="m4.4 53.7q0.1 1 0.3 1.9l48-16.3q-0.4-0.8-0.9-1.6 0 0-0.1-0.1z"/><path class="k" d="m11 67.2c5.2 5.4 12.8 8.4 20.4 8q1-0.1 2-0.2c5.8-0.9 11.3-3.7 15.2-7.8 5-5.2 7.5-12.3 6.8-19.3q-0.2-2-0.7-3.8l-48.3 16.4c1.2 2.4 2.7 4.7 4.6 6.7z"/><path class="l" d="m5.2 57.2q0.2 0.9 0.6 1.8l48.4-16.4q-0.3-0.9-0.8-1.8z"/><path fill-rule="evenodd" class="m" d="m4.2 52.1q-0.2-2.1 0-4.2c0.4-3.9 1.8-7.1 3.6-10.2 1.6-2.5 3.5-4.9 5.3-7.5 4.3-6 8.4-12.2 11.8-18.8 1.9-3.7 3.6-7.5 4.9-11.4 1.3 3.9 3.1 7.7 5 11.4 3.4 6.6 7.4 12.8 11.7 18.8 1.5 2.1 3 4 4.3 6zm38-19.1c0 0.7 0.5 1.2 1.1 1.2 0.6 0 1.1-0.5 1.1-1.2 0-0.6-0.5-1.1-1.1-1.1-0.6 0-1.1 0.5-1.1 1.1zm-5.6-5.7c0 1.3 1 2.3 2.3 2.3 1.3 0 2.3-1 2.3-2.3 0-1.2-1-2.3-2.3-2.3-1.3 0-2.3 1.1-2.3 2.3zm-2.3 7.1c-1.2 0-2.2 1-2.2 2.2 0 1.3 1 2.3 2.2 2.3 1.3 0 2.3-1 2.3-2.3 0-1.2-1-2.2-2.3-2.2zm-2.2-15.4c0 0.7 0.5 1.2 1.1 1.2 0.6 0 1.1-0.5 1.1-1.2 0-0.6-0.5-1.1-1.1-1.1-0.6 0-1.1 0.5-1.1 1.1zm-2.2 10.4c0 0.6 0.5 1.1 1.1 1.1 0.7 0 1.2-0.5 1.2-1.1 0-0.6-0.5-1.1-1.2-1.1-0.6 0-1.1 0.5-1.1 1.1zm-3.5-15.5c0 0.6 0.5 1.1 1.1 1.1 0.6 0 1.1-0.5 1.1-1.1 0-0.6-0.5-1.1-1.1-1.1-0.6 0-1.1 0.5-1.1 1.1zm-2.4 11.1c0 1.3 1.1 2.3 2.3 2.3 1.3 0 2.3-1 2.3-2.3 0-1.2-1-2.2-2.3-2.2-1.2 0-2.3 1-2.3 2.2zm-1.1 11.6c0 0.7 0.5 1.2 1.1 1.2 0.7 0 1.2-0.5 1.2-1.2 0-0.6-0.5-1.1-1.2-1.1-0.6 0-1.1 0.5-1.1 1.1zm-2.5 5.8c-0.6 0-1.1 0.5-1.1 1.1 0 0.6 0.5 1.2 1.1 1.2 0.7 0 1.2-0.6 1.2-1.2 0-0.6-0.5-1.1-1.2-1.1zm-2.2-14.7c0 0.7 0.5 1.2 1.1 1.2 0.6 0 1.1-0.5 1.1-1.2 0-0.6-0.5-1.1-1.1-1.1-0.6 0-1.1 0.5-1.1 1.1zm-6.3 9.9c0 1.3 1 2.3 2.3 2.3 1.2 0 2.2-1 2.2-2.3 0-1.2-1-2.2-2.2-2.2-1.3 0-2.3 1-2.3 2.2zm-3.1 8.2c0 0.6 0.5 1.1 1.2 1.1 0.6 0 1.1-0.5 1.1-1.1 0-0.6-0.5-1.1-1.1-1.1-0.7 0-1.2 0.5-1.2 1.1z"/><path class="n" d="m57.9 48.7c-0.1 3.9-0.7 7.7-2.1 11.2-1.3 3.5-3.4 6.6-5.9 9.2-2.6 2.6-5.8 4.5-9.2 5.8-3.4 1.3-7 1.9-10.7 1.9q-2.7 0-5.4-0.4-2.7-0.5-5.3-1.5c-3.3-1.3-6.5-3.3-9.1-5.9-2.6-2.5-4.7-5.7-6-9.2-1.4-3.4-2.1-7.2-2.1-11.1-0.7 3.8-0.5 7.8 0.6 11.6q0.8 2.9 2.2 5.5 1.5 2.7 3.5 4.9c2.7 3 6.1 5.4 9.8 7q2.8 1.1 5.8 1.7 3 0.6 6 0.6c4 0 8.1-0.8 11.8-2.3 3.8-1.5 7.2-3.9 9.9-6.9 2.6-3 4.6-6.6 5.6-10.5 1-3.8 1.2-7.8 0.6-11.6z"/><path class="i" d="m103.4 31h-4.9l-5.8-16.8-5.8 16.8h-4.9l-8.8-25.8h6.1l5.3 17.3 5.7-17.4h4.9l5.7 17.4 5.3-17.3h5.9z"/><path fill-rule="evenodd" class="i" d="m133.6 30.8l-2.4-5.7h-10.8l-2.4 5.7h-5.7l11-25.8h5.2l11 25.8zm-7.8-19l-3.4 8.3h6.8z"/><path class="i" d="m153.2 10.4v20.4h-5.7v-20.4h-7.8v-5.2h21.3v5.2z"/><path class="i" d="m163.5 30.8v-25.6h19.3v5h-13.8v5.2h12.1v5h-12.1v5.4h14v5z"/><path fill-rule="evenodd" class="i" d="m201.7 30.8l-5.4-8.2h-4.5v8.2h-5.6v-25.6h11.7q4.6 0 7.1 2.2 2.6 2.3 2.6 6.2v0.1q0 3.1-1.5 5.1-1.6 1.9-4 2.9l6.2 9.1zm0.2-16.9q0-1.8-1.2-2.7-1.2-0.9-3.3-0.9h-5.6v7.3h5.7q2.1 0 3.2-1 1.2-0.9 1.2-2.6z"/><path fill-rule="evenodd" class="b" d="m239.5 18q-0.8 1.7-2.2 2.9-1.5 1.1-3.3 1.7-1.9 0.5-4.1 0.5h-4.3v7.7h-5.6v-25.6h10.5q2.3 0 4.1 0.6 1.8 0.7 3.1 1.8 1.2 1.2 1.9 2.8 0.7 1.7 0.7 3.6v0.1q0 2.3-0.8 3.9zm-4.9-3.8q0-1.9-1.3-2.9-1.2-1-3.3-1h-4.4v7.8h4.5q2.1 0 3.3-1.1 1.2-1.1 1.2-2.8z"/><path class="b" d="m263.8 24.7q-0.8 2.2-2.3 3.6-1.4 1.5-3.5 2.2-2.1 0.7-4.7 0.7-5.1 0-8.1-2.8-3-2.9-3-8.6v-14.6h5.7v14.5q0 3.1 1.4 4.7 1.5 1.6 4.1 1.6 2.6 0 4.1-1.5 1.4-1.6 1.4-4.6v-14.7h5.7v14.4q0 3-0.8 5.1z"/><path fill-rule="evenodd" class="b" d="m284 30.8l-5.5-8.2h-4.4v8.2h-5.6v-25.6h11.7q4.6 0 7.1 2.2 2.6 2.3 2.6 6.2v0.1q0 3.1-1.6 5.1-1.5 1.9-3.9 2.9l6.2 9.1zm0.1-16.9q0-1.8-1.1-2.7-1.2-0.9-3.3-0.9h-5.6v7.3h5.7q2.1 0 3.2-1 1.1-0.9 1.1-2.6z"/><path class="b" d="m293.4 30.8v-25.6h5.6v25.6z"/><path class="b" d="m309.2 10.3v5.5h12.3v5.1h-12.3v9.9h-5.6v-25.6h19.5v5.1z"/><path class="b" d="m326 30.8v-25.6h5.7v25.6z"/><path class="b" d="m336.3 30.8v-25.6h19.3v5h-13.8v5.2h12.1v5h-12.1v5.4h13.9v5z"/><path fill-rule="evenodd" class="b" d="m374.5 30.8l-5.5-8.2h-4.4v8.2h-5.6v-25.6h11.7q4.6 0 7.1 2.2 2.6 2.3 2.6 6.2v0.1q0 3.1-1.6 5.1-1.5 1.9-3.9 2.9l6.2 9.1zm0.1-16.9q0-1.8-1.1-2.7-1.2-0.9-3.3-0.9h-5.6v7.3h5.7q2.1 0 3.2-1 1.1-0.9 1.1-2.6z"/><path fill-rule="evenodd" class="b" d="m191.5 52.6q0.7 1.5 0.7 3.4 0 2.1-0.8 3.7-0.8 1.5-2.2 2.6-1.4 1.1-3.2 1.6-1.8 0.5-3.9 0.5h-6.2v9.1h-2.9v-25.7h9.6q2.2 0 3.9 0.6 1.8 0.6 3.1 1.6 1.2 1 1.9 2.6zm-2.2 3.5q0-2.8-1.9-4.2-1.9-1.4-5-1.4h-6.5v11.3h6.4q1.5 0 2.8-0.4 1.3-0.4 2.3-1.2 0.9-0.7 1.4-1.8 0.5-1 0.5-2.3zm23.3-8.5l11.7 25.9h-3.1l-3-6.8h-14l-3 6.8h-3l11.7-25.9zm4.4 16.5l-5.8-13.1-5.9 13.1zm31.2-1.1l7.8 10.5h-3.5l-7.4-10h-7.4v10h-2.9v-25.7h11.1q2.1 0 3.8 0.6 1.7 0.5 2.9 1.5 1.2 1 1.9 2.4 0.6 1.5 0.6 3.2 0 1.6-0.5 2.9-0.5 1.2-1.4 2.2-1 0.9-2.2 1.5-1.3 0.6-2.8 0.9zm-2.6-2.1q1.5 0 2.7-0.3 1.2-0.4 2.1-1.1 0.8-0.7 1.3-1.7 0.5-0.9 0.5-2.2 0-2.4-1.7-3.8-1.7-1.3-4.8-1.3h-8v10.4zm31.6-1.9l11.4 14.5h-3.6l-9.8-12.5-5.5 5.6v6.9h-2.9v-25.7h2.9v15.3l14.7-15.3h3.8zm-176.8 1.9h60.8v0.7h-60.8c-6.1 2.1-10.8 7.1-12.5 13.4-1.8-6.7-7-11.9-13.7-13.7 6.7-1.8 11.9-7.1 13.7-13.8 1.7 6.3 6.4 11.3 12.5 13.4zm283.9 0.4c-6.7 1.8-11.9 7-13.7 13.7-1.7-6.3-6.4-11.3-12.6-13.4h-60.7v-0.7h60.7c6.2-2.1 10.9-7.1 12.6-13.4 1.8 6.7 7 12 13.7 13.8z"/></svg>